# xmcd
#
# Track frame offsets:
#	182
#	12100
#	25552
#	38525
#	51497
#	58400
#	71437
#	83637
#	104442
#	116675
#	128530
#	140250
#	152742
#	168295
#	181140
#	194550
#
# Disc length: 2770
#
# Revision: 1
# Processed by: cddbd v1.5.1PL0 Copyright (c) Steve Scherf et al.
# Submitted via: CDnGo 2.00
# Normalized: r0:DSETVAR1
#
DISCID=cd0ad010
DTITLE=Various Artist - dreamin' Soul Music
DYEAR=1900
DGENRE=Soul
TTITLE0=Sam and Dave - Soul Man
TTITLE1=Eddie Floyd - Knock On Wood
TTITLE2=Bob and Earl - Harlem Shuffle
TTITLE3=Mary Wells - My Guy
TTITLE4=Maurice Williams and The Zodiac - Stay
TTITLE5=Lloyd Price - Stagger Lee
TTITLE6=Aaron Neville - Tell It Like It Is
TTITLE7=Gladys Knight and The Pips - Every Beat Of My Heart
TTITLE8=Ike and Tina Turner - So Fine
TTITLE9=Inez Foxx - Mockingbird
TTITLE10=Maxime Brown - Oh No! Not My Baby
TTITLE11=Climax - Precious and Few
TTITLE12=Al Wilson - Show and Tell
TTITLE13=The Whispers - Seems Like I Gotta Do Wrong
TTITLE14=Ben E. King - Stand By Me
TTITLE15=Percy Sledge - When A Man Loves A Woman
EXTD=
EXTT0=
EXTT1=
EXTT2=
EXTT3=
EXTT4=
EXTT5=
EXTT6=
EXTT7=
EXTT8=
EXTT9=
EXTT10=
EXTT11=
EXTT12=
EXTT13=
EXTT14=
EXTT15=
PLAYORDER=
